<?xml version="1.0" encoding="UTF-8" standalone="no"?>
<svg width="20px" height="20px" viewBox="0 0 20 20" version="1.1" xmlns="http://www.w3.org/2000/svg" xmlns:xlink="http://www.w3.org/1999/xlink">
    <!-- Generator: Sketch 3.8.3 (29802) - http://www.bohemiancoding.com/sketch -->
    <title>Group 11</title>
    <desc>Created with Sketch.</desc>
    <defs></defs>
    <g id="Page-1" stroke="none" stroke-width="1" fill="none" fill-rule="evenodd">
        <g id="更多_focuse">
            <g id="Group-11" transform="translate(1.000000, 1.000000)">
                <circle id="Oval-2" stroke="#1CB6B1" cx="9" cy="9" r="9"></circle>
                <path d="M9.00152125,15.3218148 C8.91128758,15.3218148 8.8210402,15.2864538 8.7521726,15.2156473 C8.61434148,15.0741609 8.61434148,14.8448767 8.7521726,14.7034185 L12.2786731,11.0805286 C12.4164357,10.939 12.6396215,10.939 12.7773841,11.0805286 C12.9152152,11.222015 12.9152152,11.4512992 12.7773841,11.5927997 L9.25091103,15.2156614 C9.18200231,15.2864538 9.09175493,15.3218148 9.00152125,15.3218148 L9.00152125,15.3218148 Z M14.6443057,9.52524736 L3.35877789,9.52524736 C3.16400251,9.52524736 3.00605246,9.36295787 3.00605246,9.16294431 C3.00605246,8.96283229 3.16400251,8.80061312 3.35877789,8.80061312 L13.7928008,8.80061312 L8.7521726,3.62248419 C8.61434148,3.48095561 8.61434148,3.25171362 8.7521726,3.11018504 C8.8899352,2.96865645 9.11312101,2.96865645 9.25091103,3.11018504 L14.8936544,8.90679473 C14.9945917,9.01041639 15.0248797,9.16615128 14.9700871,9.30163163 C14.915692,9.43691506 14.7868651,9.52524736 14.6443057,9.52524736 L14.6443057,9.52524736 Z" id="Shape" fill="#1CB6B1"></path>
            </g>
        </g>
    </g>
</svg>