<?xml version="1.0" encoding="UTF-8" standalone="no"?>
<svg width="26px" height="21px" viewBox="0 0 26 21" version="1.1" xmlns="http://www.w3.org/2000/svg" xmlns:xlink="http://www.w3.org/1999/xlink">
    <!-- Generator: Sketch 3.8.3 (29802) - http://www.bohemiancoding.com/sketch -->
    <title>WeChat</title>
    <desc>Created with Sketch.</desc>
    <defs></defs>
    <g id="Page-1" stroke="none" stroke-width="1" fill="none" fill-rule="evenodd">
        <g id="首页-01" transform="translate(-952.000000, -26.000000)" fill="#B0B0B0">
            <g id="Group-4" transform="translate(-1.000000, 0.000000)">
                <path d="M970.093515,32.2205856 C970.382803,32.2205856 970.669081,32.2412977 970.952915,32.2730697 C970.18055,28.6767303 966.335747,26.0046707 961.946789,26.0046707 C957.0399,26.0046707 953.020745,29.3486039 953.020745,33.5954189 C953.020745,36.0476551 954.357925,38.0597117 956.59252,39.6214466 L955.699768,42.3063966 L958.820158,40.7419081 C959.93664,40.9625449 960.832551,41.1901137 961.946741,41.1901137 C962.226855,41.1901137 962.504498,41.1761271 962.780051,41.1545455 C962.605726,40.5581628 962.504524,39.9332179 962.504524,39.284221 C962.504572,35.3847736 965.853329,32.2205856 970.093515,32.2205856 L970.093515,32.2205856 Z M965.231189,29.6192543 C965.993338,29.6192543 966.611147,30.2370911 966.611147,30.999258 C966.611147,31.7614248 965.993335,32.3792362 965.231189,32.3792362 C964.468989,32.3792362 963.85118,31.7613993 963.85118,30.999258 C963.85118,30.2371166 964.46904,29.6192543 965.231189,29.6192543 L965.231189,29.6192543 Z M958.985947,32.4070589 C958.223798,32.4070589 957.605938,31.7892221 957.605938,31.0270807 C957.605938,30.2649394 958.223801,29.6471025 958.985947,29.6471025 C959.748147,29.6471025 960.365981,30.2649394 960.365981,31.0270807 C960.365981,31.7891966 959.748147,32.4070589 958.985947,32.4070589 L958.985947,32.4070589 Z M978.177256,39.2060328 C978.177256,35.6374627 974.606374,32.7285642 970.595574,32.7285642 C966.348535,32.7285642 963.003702,35.6374627 963.003702,39.2060328 C963.003702,42.7807676 966.348535,45.6833229 970.595574,45.6833229 C971.484352,45.6833229 972.381028,45.4589665 973.273781,45.2351939 L975.722218,46.5762157 L975.05075,44.345585 C976.842499,43.0014553 978.177256,41.2190811 978.177256,39.2060328 L978.177256,39.2060328 Z M968.263193,38.2056479 C967.720444,38.2056479 967.280501,37.7656212 967.280501,37.2229182 C967.280501,36.6801643 967.720469,36.2402396 968.263193,36.2402396 C968.805916,36.2402396 969.245884,36.6801898 969.245884,37.2229182 C969.245938,37.7656467 968.805919,38.2056479 968.263193,38.2056479 L968.263193,38.2056479 Z M973.170133,38.2613928 C972.627333,38.2613928 972.187416,37.8213916 972.187416,37.2787142 C972.187416,36.7359348 972.627359,36.2960355 973.170133,36.2960355 C973.712856,36.2960355 974.152824,36.7359602 974.152824,37.2787142 C974.152853,37.8213916 973.712859,38.2613928 973.170133,38.2613928 L973.170133,38.2613928 Z" id="WeChat"></path>
            </g>
        </g>
    </g>
</svg>