<?xml version="1.0" encoding="UTF-8" standalone="no"?>
<svg width="95px" height="40px" viewBox="0 0 95 40" version="1.1" xmlns="http://www.w3.org/2000/svg" xmlns:xlink="http://www.w3.org/1999/xlink">
    <!-- Generator: Sketch 3.8.3 (29802) - http://www.bohemiancoding.com/sketch -->
    <title>Page 1 Copy 2</title>
    <desc>Created with Sketch.</desc>
    <defs>
        <path d="M82.3603877,20.0423103 C80.1201087,17.7143931 62.3796572,0 41.2883837,0 C35.1509913,0 29.2989707,1.45786897 24.030787,3.58090345 C25.7794134,7.31986897 28.2365127,13.5007034 28.6072054,19.3597724 C29.0124906,25.7655655 26.7858627,33.1507317 25.3816112,37.0789448 C30.6051518,38.754949 36.6599562,39.8475335 43.5689826,39.8475333 C62.6794924,39.8475351 79.9940616,22.9431448 82.3312681,20.5693034 L95,33.2610317 L95,7.37977241 L82.3603877,20.0423103 L82.3603877,20.0423103 Z M51.9653786,18.2490552 L56.0283014,13.728531 L55.223383,13.0024621 L50.5124982,18.2439241 L50.5452319,18.2734414 L50.5335428,18.2776 L55.0006906,23.2478759 L55.8056091,22.5218069 L51.9653786,18.2490552 L51.9653786,18.2490552 Z M37.2325652,25.6288345 L41.295488,21.1083034 L40.4905696,20.3822345 L35.7796917,25.6236966 L35.8124185,25.6532207 L35.8007293,25.6573724 L40.2678772,30.6276552 L41.0727957,29.9015862 L37.2325652,25.6288345 L37.2325652,25.6288345 Z M37.2325652,9.4636069 L41.295488,4.94308276 L40.4905696,4.21701379 L35.7796917,9.45847586 L35.8124185,9.488 L35.8007293,9.49215172 L40.2678772,14.4624276 L41.0727957,13.7363655 L37.2325652,9.4636069 L37.2325652,9.4636069 Z M21.9877638,4.44921379 C8.97312174,10.2663862 0,19.7237862 0,19.7237862 C0,19.7237862 7.46218116,30.5134621 23.0995116,36.2916848 C24.4733011,32.9136552 26.8298518,26.0604621 26.5145344,19.4329862 C26.2253696,13.3550345 23.6981562,7.65815862 21.9877638,4.44921379 L21.9877638,4.44921379 Z M18.4160185,17.2194759 C20.0627333,17.2194759 21.3976554,15.882131 21.3976554,14.2324276 C21.3976554,12.5827241 20.0627333,11.2453724 18.4160185,11.2453724 C16.7693036,11.2453724 15.4343746,12.5827241 15.4343746,14.2324276 C15.4343746,15.882131 16.7693036,17.2194759 18.4160185,17.2194759 L18.4160185,17.2194759 Z" id="path-1"></path>
    </defs>
    <g id="Page-1" stroke="none" stroke-width="1" fill="none" fill-rule="evenodd">
        <g id="首页-02" transform="translate(-720.000000, -577.000000)">
            <g id="Group-9" transform="translate(675.000000, 577.000000)">
                <g id="Page-1-Copy-2" transform="translate(45.000000, 0.000000)">
                    <mask id="mask-2" fill="white">
                        <use xlink:href="#path-1"></use>
                    </mask>
                    <g id="Clip-2"></g>
                    <polygon id="Fill-1" fill="#D39601" mask="url(#mask-2)" points="-3.44202899 -3.44827586 98.442029 -3.44827586 98.442029 43.295809 -3.44202899 43.295809"></polygon>
                </g>
            </g>
        </g>
    </g>
</svg>