<?xml version="1.0" encoding="UTF-8" standalone="no"?>
<svg width="138px" height="58px" viewBox="0 0 138 58" version="1.1" xmlns="http://www.w3.org/2000/svg" xmlns:xlink="http://www.w3.org/1999/xlink">
    <!-- Generator: Sketch 3.8.3 (29802) - http://www.bohemiancoding.com/sketch -->
    <title>Combined Shape</title>
    <desc>Created with Sketch.</desc>
    <defs></defs>
    <g id="Page-1" stroke="none" stroke-width="1" fill="none" fill-rule="evenodd">
        <g id="acceptable_bg-copy" fill="#BABABA">
            <path d="M119.639326,29.0613483 C116.385018,25.6858672 90.6146573,1.13547714e-09 59.9768114,0 C51.0614441,-3.30415432e-10 42.5606085,2.11391013 34.9078785,5.1923054 C37.4479917,10.6138127 41.0172523,19.5760206 41.5557342,28.0716692 C42.1444636,37.360075 38.9099898,48.068561 36.8701342,53.7644703 C44.4580139,56.1946765 53.2534055,57.7789236 63.2896818,57.7789233 C91.0502108,57.7789259 116.201873,33.2675613 119.596997,29.8254934 L138,48.2284961 L138,10.7006747 L119.639326,29.0613483 Z M75.4865456,26.4611305 L81.3884819,19.9063663 L80.2192328,18.8535697 L73.3760549,26.4536886 L73.4235958,26.4964946 L73.4066173,26.5025153 L79.8957442,33.7094209 L81.0649933,32.6566243 L75.4865456,26.4611305 Z M54.0851963,37.1618052 L59.9871325,30.6070409 L58.8178834,29.5542444 L51.9747056,37.1543633 L52.0222464,37.1971693 L52.0052679,37.20319 L58.4943949,44.4100956 L59.6636439,43.357299 L54.0851963,37.1618052 Z M54.0851963,13.7222321 L59.9871325,7.16746784 L58.8178834,6.11467125 L51.9747056,13.7147902 L52.0222464,13.7575962 L52.0052679,13.7636169 L58.4943949,20.9705225 L59.6636439,19.9177259 L54.0851963,13.7222321 Z M31.9401229,6.45135814 C13.0346366,14.8862648 0,28.5994893 0,28.5994893 C0,28.5994893 10.8398023,44.2445231 33.5550758,52.622943 C35.5506864,47.7247998 38.9738852,37.7876722 38.5158531,28.1778253 C38.0957999,19.3648032 34.4246919,11.1043341 31.9401229,6.45135814 Z M26.7516867,24.9682409 C29.1437565,24.9682409 31.0829122,23.0290852 31.0829122,20.6370155 C31.0829122,18.2449457 29.1437565,16.30579 26.7516867,16.30579 C24.3596169,16.30579 22.4204612,18.2449457 22.4204612,20.6370155 C22.4204612,23.0290852 24.3596169,24.9682409 26.7516867,24.9682409 Z" id="Combined-Shape"></path>
        </g>
    </g>
</svg>