<?xml version="1.0" encoding="UTF-8" standalone="no"?>
<svg width="19px" height="17px" viewBox="0 0 19 17" version="1.1" xmlns="http://www.w3.org/2000/svg" xmlns:xlink="http://www.w3.org/1999/xlink">
    <!-- Generator: Sketch 3.8.3 (29802) - http://www.bohemiancoding.com/sketch -->
    <title>cloud-down</title>
    <desc>Created with Sketch.</desc>
    <defs></defs>
    <g id="Page-1" stroke="none" stroke-width="1" fill="none" fill-rule="evenodd">
        <g id="详细信息" transform="translate(-71.000000, -1064.000000)" fill="#1CB6B1">
            <g id="cloud-down" transform="translate(71.000000, 1064.000000)">
                <path d="M15.385206,12.6818956 L15.385206,10.6865109 C17.0213242,9.0229405 17.3973827,6.49383269 16.3160651,4.42620081 C15.2347475,2.35856892 12.9430185,1.22464453 10.6433396,1.61939345 C8.34366081,2.01414238 6.56126148,3.84740695 6.23135984,6.15728018 L4.61597522,6.15728018 C3.22489983,6.15318486 2.00519059,7.08563155 1.64429058,8.42908184 C1.28339056,9.77253214 1.87164796,11.190665 3.07751368,11.8842033 L3.07751368,13.5672802 C0.958563358,12.8221418 -0.31356936,10.6568911 0.0670152678,8.44322061 C0.447599895,6.22955013 2.36983336,4.61348986 4.61597522,4.61881864 C4.74674445,4.61881864 4.87751368,4.64651094 5.00059061,4.65804941 C5.98764835,1.80716328 8.70722941,-0.0762757459 11.7231288,0.00237246745 C14.7390282,0.0810206808 17.3567475,2.1036451 18.1938746,5.00210207 C19.0310018,7.90055904 17.894764,11.0073946 15.385206,12.6818956 L15.385206,12.6818956 Z M6.47751368,13.1949725 L8.46212907,14.5357417 L8.46212907,8.46497248 C8.46212907,8.04013806 8.80652541,7.69574171 9.23135984,7.69574171 C9.65619426,7.69574171 10.0005906,8.04013806 10.0005906,8.46497248 L10.0005906,14.5357417 L11.985206,13.1949725 C12.154753,13.0833712 12.3654321,13.053743 12.5591834,13.114253 C12.7529346,13.174763 12.9093068,13.3190241 12.985206,13.5072802 C13.1892974,13.910446 13.0759912,14.401871 12.7159752,14.6749725 L9.82366753,16.6280494 C9.81258872,16.6401015 9.79959284,16.6502383 9.78520599,16.6580494 C9.73199606,16.7249133 9.66677751,16.7812621 9.5928983,16.8242033 L9.5928983,16.8242033 C9.50594888,16.8742774 9.4084663,16.9032587 9.30828291,16.9088186 C9.30317258,16.9082132 9.29800864,16.9082132 9.2928983,16.9088186 L9.26982138,16.9142033 C9.25443676,16.9142033 9.24674445,16.9211263 9.23135984,16.9211263 C9.21831416,16.9203185 9.20540682,16.9179952 9.1928983,16.9142033 L9.16982138,16.9088186 C9.16229531,16.906542 9.15456723,16.9049964 9.14674445,16.9042033 C9.07840787,16.9013137 9.01093572,16.8878193 8.94674445,16.8642033 C8.92366753,16.8526648 8.90059061,16.8349725 8.86982138,16.8211263 C8.81798855,16.7925908 8.76904199,16.759101 8.72366753,16.7211263 C8.70059061,16.6980494 8.68520599,16.6649725 8.66212907,16.6388186 L5.74674445,14.6695879 C5.38672848,14.3964863 5.27342232,13.9050614 5.47751368,13.5018956 C5.55451821,13.3145642 5.71136008,13.1715566 5.904986,13.1121283 C6.09861193,13.0527 6.30867538,13.083096 6.47751368,13.1949725 L6.47751368,13.1949725 Z"></path>
            </g>
        </g>
    </g>
</svg>