<svg width="18px" height="15px" viewBox="0 0 18 15" version="1.1" xmlns="http://www.w3.org/2000/svg" xmlns:xlink="http://www.w3.org/1999/xlink">
    <!-- Generator: Sketch 3.8.3 (29802) - http://www.bohemiancoding.com/sketch -->
    <title>“</title>
    <desc>Created with Sketch.</desc>
    <defs></defs>
    <g id="Page-1" stroke="none" stroke-width="1" fill="none" fill-rule="evenodd">
        <g id="信息" transform="translate(0.000000, -2.000000)" fill="#EEEEEE">
            <path d="M17.8437917,2 L17.8437917,4.56341789 C16.8558028,4.83044192 16.104809,5.20426996 15.5907877,5.68491322 C15.0767665,6.16555648 14.6662232,6.77636479 14.3591455,7.51735648 C14.0520679,8.25834816 13.8985314,9.1628785 13.8985314,10.2309746 C15.1535443,10.2309746 16.0847767,10.5914517 16.6922563,11.3124166 C17.299736,12.0333814 17.6034713,12.801064 17.6034713,13.6154873 C17.6034713,14.5634226 17.2696963,15.3644827 16.6021362,16.0186916 C15.9345761,16.6729005 15.1535425,17 14.259012,17 C13.0974575,17 12.1028079,16.5026752 11.2750334,15.5080107 C10.4472589,14.5133462 10.0333778,13.1548818 10.0333778,11.4325768 C10.0333778,9.91053979 10.3604774,8.48532039 11.0146862,7.15687583 C11.6688951,5.82843128 12.5634122,4.69359616 13.6982644,3.75233645 C14.8331165,2.81107674 16.2149451,2.22697043 17.8437917,2 L17.8437917,2 Z M7.79038718,4.56341789 C6.80239826,4.83044192 6.05140444,5.20426996 5.53738318,5.68491322 C5.02336192,6.16555648 4.61281862,6.77636479 4.30574099,7.51735648 C3.99866335,8.25834816 3.84512684,9.1628785 3.84512684,10.2309746 C5.12684219,10.2309746 6.06808778,10.5914517 6.66889186,11.3124166 C7.26969593,12.0333814 7.57009346,12.801064 7.57009346,13.6154873 C7.57009346,14.5634226 7.23298067,15.3644827 6.55874499,16.0186916 C5.88450931,16.6729005 5.10681348,17 4.22563418,17 C3.07743084,17 2.08611899,16.5026752 1.25166889,15.5080107 C0.417218792,14.5133462 0,13.1548818 0,11.4325768 C0,9.91053979 0.327099533,8.48532039 0.981308411,7.15687583 C1.63551729,5.82843128 2.52669663,4.69359616 3.65487316,3.75233645 C4.7830497,2.81107674 6.16154059,2.22697043 7.79038718,2 L7.79038718,4.56341789 Z" id="“"></path>
        </g>
    </g>
</svg>